<mxfile host="app.diagrams.net" modified="2023-11-09T07:52:11.300Z" agent="Mozilla/5.0 (Macintosh; Intel Mac OS X 10_15_7) AppleWebKit/537.36 (KHTML, like Gecko) Chrome/119.0.0.0 Safari/537.36" etag="wOPUfNGKLqwCEBrZnxG_" version="22.1.0" type="device">
  <diagram id="C5RBs43oDa-KdzZeNtuy" name="Page-1">
    <mxGraphModel dx="934" dy="1780" grid="1" gridSize="10" guides="1" tooltips="1" connect="1" arrows="1" fold="1" page="1" pageScale="1" pageWidth="827" pageHeight="1169" math="0" shadow="0">
      <root>
        <mxCell id="WIyWlLk6GJQsqaUBKTNV-0" />
        <mxCell id="WIyWlLk6GJQsqaUBKTNV-1" parent="WIyWlLk6GJQsqaUBKTNV-0" />
        <mxCell id="dFNet6i5dZ1s-jXTIMQ5-82" style="edgeStyle=orthogonalEdgeStyle;rounded=0;orthogonalLoop=1;jettySize=auto;html=1;entryX=0.5;entryY=0;entryDx=0;entryDy=0;" edge="1" parent="WIyWlLk6GJQsqaUBKTNV-1" source="dFNet6i5dZ1s-jXTIMQ5-0" target="dFNet6i5dZ1s-jXTIMQ5-81">
          <mxGeometry relative="1" as="geometry" />
        </mxCell>
        <mxCell id="dFNet6i5dZ1s-jXTIMQ5-0" value="Mulai" style="strokeWidth=2;html=1;shape=mxgraph.flowchart.terminator;whiteSpace=wrap;" vertex="1" parent="WIyWlLk6GJQsqaUBKTNV-1">
          <mxGeometry x="178.75" y="-360" width="100" height="60" as="geometry" />
        </mxCell>
        <mxCell id="dFNet6i5dZ1s-jXTIMQ5-6" style="edgeStyle=orthogonalEdgeStyle;rounded=0;orthogonalLoop=1;jettySize=auto;html=1;" edge="1" parent="WIyWlLk6GJQsqaUBKTNV-1">
          <mxGeometry relative="1" as="geometry">
            <mxPoint x="225" y="40" as="sourcePoint" />
            <mxPoint x="225" y="90" as="targetPoint" />
          </mxGeometry>
        </mxCell>
        <mxCell id="dFNet6i5dZ1s-jXTIMQ5-9" style="edgeStyle=orthogonalEdgeStyle;rounded=0;orthogonalLoop=1;jettySize=auto;html=1;entryX=0;entryY=0.5;entryDx=0;entryDy=0;" edge="1" parent="WIyWlLk6GJQsqaUBKTNV-1" source="dFNet6i5dZ1s-jXTIMQ5-7" target="dFNet6i5dZ1s-jXTIMQ5-8">
          <mxGeometry relative="1" as="geometry" />
        </mxCell>
        <mxCell id="dFNet6i5dZ1s-jXTIMQ5-12" style="edgeStyle=orthogonalEdgeStyle;rounded=0;orthogonalLoop=1;jettySize=auto;html=1;entryX=0.5;entryY=0;entryDx=0;entryDy=0;" edge="1" parent="WIyWlLk6GJQsqaUBKTNV-1" source="dFNet6i5dZ1s-jXTIMQ5-7" target="dFNet6i5dZ1s-jXTIMQ5-11">
          <mxGeometry relative="1" as="geometry" />
        </mxCell>
        <mxCell id="dFNet6i5dZ1s-jXTIMQ5-7" value="Cek apakah n sama dengan 1 atau 2" style="strokeWidth=2;html=1;shape=mxgraph.flowchart.decision;whiteSpace=wrap;" vertex="1" parent="WIyWlLk6GJQsqaUBKTNV-1">
          <mxGeometry x="160" y="90" width="130" height="140" as="geometry" />
        </mxCell>
        <mxCell id="dFNet6i5dZ1s-jXTIMQ5-34" style="edgeStyle=orthogonalEdgeStyle;rounded=0;orthogonalLoop=1;jettySize=auto;html=1;entryX=1;entryY=0.5;entryDx=0;entryDy=0;" edge="1" parent="WIyWlLk6GJQsqaUBKTNV-1" source="dFNet6i5dZ1s-jXTIMQ5-8">
          <mxGeometry relative="1" as="geometry">
            <mxPoint x="282.7499999999999" y="5" as="targetPoint" />
            <Array as="points">
              <mxPoint x="440" y="5" />
            </Array>
          </mxGeometry>
        </mxCell>
        <mxCell id="dFNet6i5dZ1s-jXTIMQ5-8" value="n bukan bilangan keren" style="rounded=1;whiteSpace=wrap;html=1;absoluteArcSize=1;arcSize=14;strokeWidth=2;" vertex="1" parent="WIyWlLk6GJQsqaUBKTNV-1">
          <mxGeometry x="380" y="110" width="120" height="100" as="geometry" />
        </mxCell>
        <mxCell id="dFNet6i5dZ1s-jXTIMQ5-10" value="Ya" style="text;html=1;strokeColor=none;fillColor=none;align=center;verticalAlign=middle;whiteSpace=wrap;rounded=0;" vertex="1" parent="WIyWlLk6GJQsqaUBKTNV-1">
          <mxGeometry x="290" y="120" width="60" height="30" as="geometry" />
        </mxCell>
        <mxCell id="dFNet6i5dZ1s-jXTIMQ5-15" style="edgeStyle=orthogonalEdgeStyle;rounded=0;orthogonalLoop=1;jettySize=auto;html=1;entryX=0.5;entryY=0;entryDx=0;entryDy=0;" edge="1" parent="WIyWlLk6GJQsqaUBKTNV-1" source="dFNet6i5dZ1s-jXTIMQ5-11">
          <mxGeometry relative="1" as="geometry">
            <mxPoint x="225" y="440" as="targetPoint" />
          </mxGeometry>
        </mxCell>
        <mxCell id="dFNet6i5dZ1s-jXTIMQ5-11" value="Inisialisasi sebuah variable (i) dengan nilai 2" style="rounded=1;whiteSpace=wrap;html=1;absoluteArcSize=1;arcSize=14;strokeWidth=2;" vertex="1" parent="WIyWlLk6GJQsqaUBKTNV-1">
          <mxGeometry x="175" y="280" width="100" height="100" as="geometry" />
        </mxCell>
        <mxCell id="dFNet6i5dZ1s-jXTIMQ5-13" value="Tidak" style="text;html=1;strokeColor=none;fillColor=none;align=center;verticalAlign=middle;whiteSpace=wrap;rounded=0;" vertex="1" parent="WIyWlLk6GJQsqaUBKTNV-1">
          <mxGeometry x="230" y="230" width="60" height="30" as="geometry" />
        </mxCell>
        <mxCell id="dFNet6i5dZ1s-jXTIMQ5-19" style="edgeStyle=orthogonalEdgeStyle;rounded=0;orthogonalLoop=1;jettySize=auto;html=1;entryX=0;entryY=0.5;entryDx=0;entryDy=0;" edge="1" parent="WIyWlLk6GJQsqaUBKTNV-1" source="dFNet6i5dZ1s-jXTIMQ5-16" target="dFNet6i5dZ1s-jXTIMQ5-18">
          <mxGeometry relative="1" as="geometry" />
        </mxCell>
        <mxCell id="dFNet6i5dZ1s-jXTIMQ5-16" value="Cek apakah n &lt;br&gt;habis dibagi oleh i" style="strokeWidth=2;html=1;shape=mxgraph.flowchart.decision;whiteSpace=wrap;" vertex="1" parent="WIyWlLk6GJQsqaUBKTNV-1">
          <mxGeometry x="162.5" y="570" width="125" height="130" as="geometry" />
        </mxCell>
        <mxCell id="dFNet6i5dZ1s-jXTIMQ5-17" style="edgeStyle=orthogonalEdgeStyle;rounded=0;orthogonalLoop=1;jettySize=auto;html=1;entryX=0.5;entryY=0;entryDx=0;entryDy=0;entryPerimeter=0;" edge="1" parent="WIyWlLk6GJQsqaUBKTNV-1" target="dFNet6i5dZ1s-jXTIMQ5-16">
          <mxGeometry relative="1" as="geometry">
            <mxPoint x="225" y="520" as="sourcePoint" />
          </mxGeometry>
        </mxCell>
        <mxCell id="dFNet6i5dZ1s-jXTIMQ5-18" value="n bukan bilangan keren" style="rounded=1;whiteSpace=wrap;html=1;absoluteArcSize=1;arcSize=14;strokeWidth=2;" vertex="1" parent="WIyWlLk6GJQsqaUBKTNV-1">
          <mxGeometry x="364" y="585" width="100" height="100" as="geometry" />
        </mxCell>
        <mxCell id="dFNet6i5dZ1s-jXTIMQ5-20" value="Ya" style="text;html=1;strokeColor=none;fillColor=none;align=center;verticalAlign=middle;whiteSpace=wrap;rounded=0;" vertex="1" parent="WIyWlLk6GJQsqaUBKTNV-1">
          <mxGeometry x="287.5" y="590" width="60" height="30" as="geometry" />
        </mxCell>
        <mxCell id="dFNet6i5dZ1s-jXTIMQ5-28" style="edgeStyle=orthogonalEdgeStyle;rounded=0;orthogonalLoop=1;jettySize=auto;html=1;entryX=0.5;entryY=0;entryDx=0;entryDy=0;" edge="1" parent="WIyWlLk6GJQsqaUBKTNV-1" source="dFNet6i5dZ1s-jXTIMQ5-23" target="dFNet6i5dZ1s-jXTIMQ5-27">
          <mxGeometry relative="1" as="geometry" />
        </mxCell>
        <mxCell id="dFNet6i5dZ1s-jXTIMQ5-23" value="n adalah bilangan keren" style="rounded=1;whiteSpace=wrap;html=1;absoluteArcSize=1;arcSize=14;strokeWidth=2;" vertex="1" parent="WIyWlLk6GJQsqaUBKTNV-1">
          <mxGeometry x="150" y="770" width="142.5" height="70" as="geometry" />
        </mxCell>
        <mxCell id="dFNet6i5dZ1s-jXTIMQ5-24" style="edgeStyle=orthogonalEdgeStyle;rounded=0;orthogonalLoop=1;jettySize=auto;html=1;entryX=0.531;entryY=-0.06;entryDx=0;entryDy=0;entryPerimeter=0;" edge="1" parent="WIyWlLk6GJQsqaUBKTNV-1" source="dFNet6i5dZ1s-jXTIMQ5-16" target="dFNet6i5dZ1s-jXTIMQ5-23">
          <mxGeometry relative="1" as="geometry" />
        </mxCell>
        <mxCell id="dFNet6i5dZ1s-jXTIMQ5-25" value="Tidak" style="text;html=1;strokeColor=none;fillColor=none;align=center;verticalAlign=middle;whiteSpace=wrap;rounded=0;" vertex="1" parent="WIyWlLk6GJQsqaUBKTNV-1">
          <mxGeometry x="227.5" y="710" width="60" height="30" as="geometry" />
        </mxCell>
        <mxCell id="dFNet6i5dZ1s-jXTIMQ5-27" value="Ya" style="shape=parallelogram;html=1;strokeWidth=2;perimeter=parallelogramPerimeter;whiteSpace=wrap;rounded=1;arcSize=12;size=0.23;" vertex="1" parent="WIyWlLk6GJQsqaUBKTNV-1">
          <mxGeometry x="148.75" y="890" width="145" height="80" as="geometry" />
        </mxCell>
        <mxCell id="dFNet6i5dZ1s-jXTIMQ5-29" value="Tidak" style="shape=parallelogram;html=1;strokeWidth=2;perimeter=parallelogramPerimeter;whiteSpace=wrap;rounded=1;arcSize=12;size=0.23;" vertex="1" parent="WIyWlLk6GJQsqaUBKTNV-1">
          <mxGeometry x="347.5" y="780" width="120" height="70" as="geometry" />
        </mxCell>
        <mxCell id="dFNet6i5dZ1s-jXTIMQ5-30" style="edgeStyle=orthogonalEdgeStyle;rounded=0;orthogonalLoop=1;jettySize=auto;html=1;entryX=0.558;entryY=-0.029;entryDx=0;entryDy=0;entryPerimeter=0;" edge="1" parent="WIyWlLk6GJQsqaUBKTNV-1" source="dFNet6i5dZ1s-jXTIMQ5-18" target="dFNet6i5dZ1s-jXTIMQ5-29">
          <mxGeometry relative="1" as="geometry" />
        </mxCell>
        <mxCell id="dFNet6i5dZ1s-jXTIMQ5-31" value="Selesai" style="strokeWidth=2;html=1;shape=mxgraph.flowchart.terminator;whiteSpace=wrap;" vertex="1" parent="WIyWlLk6GJQsqaUBKTNV-1">
          <mxGeometry x="171.25" y="1040" width="100" height="60" as="geometry" />
        </mxCell>
        <mxCell id="dFNet6i5dZ1s-jXTIMQ5-32" style="edgeStyle=orthogonalEdgeStyle;rounded=0;orthogonalLoop=1;jettySize=auto;html=1;entryX=0.5;entryY=0;entryDx=0;entryDy=0;entryPerimeter=0;" edge="1" parent="WIyWlLk6GJQsqaUBKTNV-1" source="dFNet6i5dZ1s-jXTIMQ5-27" target="dFNet6i5dZ1s-jXTIMQ5-31">
          <mxGeometry relative="1" as="geometry" />
        </mxCell>
        <mxCell id="dFNet6i5dZ1s-jXTIMQ5-33" style="edgeStyle=orthogonalEdgeStyle;rounded=0;orthogonalLoop=1;jettySize=auto;html=1;entryX=1;entryY=0.5;entryDx=0;entryDy=0;entryPerimeter=0;" edge="1" parent="WIyWlLk6GJQsqaUBKTNV-1" source="dFNet6i5dZ1s-jXTIMQ5-29" target="dFNet6i5dZ1s-jXTIMQ5-31">
          <mxGeometry relative="1" as="geometry">
            <Array as="points">
              <mxPoint x="410" y="1070" />
            </Array>
          </mxGeometry>
        </mxCell>
        <mxCell id="dFNet6i5dZ1s-jXTIMQ5-35" value="Bagi n dengan i" style="rounded=1;whiteSpace=wrap;html=1;absoluteArcSize=1;arcSize=14;strokeWidth=2;" vertex="1" parent="WIyWlLk6GJQsqaUBKTNV-1">
          <mxGeometry x="175" y="430" width="100" height="100" as="geometry" />
        </mxCell>
        <mxCell id="dFNet6i5dZ1s-jXTIMQ5-38" value="Mulai" style="strokeWidth=2;html=1;shape=mxgraph.flowchart.terminator;whiteSpace=wrap;" vertex="1" parent="WIyWlLk6GJQsqaUBKTNV-1">
          <mxGeometry x="180" y="1460" width="100" height="60" as="geometry" />
        </mxCell>
        <mxCell id="dFNet6i5dZ1s-jXTIMQ5-52" style="edgeStyle=orthogonalEdgeStyle;rounded=0;orthogonalLoop=1;jettySize=auto;html=1;entryX=0;entryY=0.5;entryDx=0;entryDy=0;" edge="1" parent="WIyWlLk6GJQsqaUBKTNV-1" source="dFNet6i5dZ1s-jXTIMQ5-47" target="dFNet6i5dZ1s-jXTIMQ5-51">
          <mxGeometry relative="1" as="geometry" />
        </mxCell>
        <mxCell id="dFNet6i5dZ1s-jXTIMQ5-56" style="edgeStyle=orthogonalEdgeStyle;rounded=0;orthogonalLoop=1;jettySize=auto;html=1;entryX=0.5;entryY=0;entryDx=0;entryDy=0;" edge="1" parent="WIyWlLk6GJQsqaUBKTNV-1" source="dFNet6i5dZ1s-jXTIMQ5-47" target="dFNet6i5dZ1s-jXTIMQ5-54">
          <mxGeometry relative="1" as="geometry" />
        </mxCell>
        <mxCell id="dFNet6i5dZ1s-jXTIMQ5-47" value="Cek apakah N habis dibagi i" style="strokeWidth=2;html=1;shape=mxgraph.flowchart.decision;whiteSpace=wrap;" vertex="1" parent="WIyWlLk6GJQsqaUBKTNV-1">
          <mxGeometry x="166.88" y="2060" width="108.75" height="110" as="geometry" />
        </mxCell>
        <mxCell id="dFNet6i5dZ1s-jXTIMQ5-48" value="Bagi nilai N dengan i" style="rounded=1;whiteSpace=wrap;html=1;absoluteArcSize=1;arcSize=14;strokeWidth=2;" vertex="1" parent="WIyWlLk6GJQsqaUBKTNV-1">
          <mxGeometry x="171.25" y="1890" width="100" height="100" as="geometry" />
        </mxCell>
        <mxCell id="dFNet6i5dZ1s-jXTIMQ5-50" style="edgeStyle=orthogonalEdgeStyle;rounded=0;orthogonalLoop=1;jettySize=auto;html=1;entryX=0.5;entryY=0;entryDx=0;entryDy=0;entryPerimeter=0;" edge="1" parent="WIyWlLk6GJQsqaUBKTNV-1" source="dFNet6i5dZ1s-jXTIMQ5-48" target="dFNet6i5dZ1s-jXTIMQ5-47">
          <mxGeometry relative="1" as="geometry" />
        </mxCell>
        <mxCell id="dFNet6i5dZ1s-jXTIMQ5-93" style="edgeStyle=orthogonalEdgeStyle;rounded=0;orthogonalLoop=1;jettySize=auto;html=1;entryX=1;entryY=0.5;entryDx=0;entryDy=0;" edge="1" parent="WIyWlLk6GJQsqaUBKTNV-1" source="dFNet6i5dZ1s-jXTIMQ5-51" target="dFNet6i5dZ1s-jXTIMQ5-88">
          <mxGeometry relative="1" as="geometry">
            <Array as="points">
              <mxPoint x="440" y="1780" />
            </Array>
          </mxGeometry>
        </mxCell>
        <mxCell id="dFNet6i5dZ1s-jXTIMQ5-51" value="Keadaan lampu tetap" style="rounded=1;whiteSpace=wrap;html=1;absoluteArcSize=1;arcSize=14;strokeWidth=2;" vertex="1" parent="WIyWlLk6GJQsqaUBKTNV-1">
          <mxGeometry x="380" y="2060" width="120" height="110" as="geometry" />
        </mxCell>
        <mxCell id="dFNet6i5dZ1s-jXTIMQ5-53" value="Tidak" style="text;html=1;strokeColor=none;fillColor=none;align=center;verticalAlign=middle;whiteSpace=wrap;rounded=0;" vertex="1" parent="WIyWlLk6GJQsqaUBKTNV-1">
          <mxGeometry x="280" y="2070" width="60" height="30" as="geometry" />
        </mxCell>
        <mxCell id="dFNet6i5dZ1s-jXTIMQ5-54" value="Ubah keadaan lampu menjadi sebaliknya" style="rounded=1;whiteSpace=wrap;html=1;absoluteArcSize=1;arcSize=14;strokeWidth=2;" vertex="1" parent="WIyWlLk6GJQsqaUBKTNV-1">
          <mxGeometry x="171.25" y="2230" width="100" height="100" as="geometry" />
        </mxCell>
        <mxCell id="dFNet6i5dZ1s-jXTIMQ5-57" value="Ya" style="text;html=1;strokeColor=none;fillColor=none;align=center;verticalAlign=middle;whiteSpace=wrap;rounded=0;" vertex="1" parent="WIyWlLk6GJQsqaUBKTNV-1">
          <mxGeometry x="232.5" y="2170" width="60" height="30" as="geometry" />
        </mxCell>
        <mxCell id="dFNet6i5dZ1s-jXTIMQ5-66" value="Menyala" style="text;html=1;strokeColor=none;fillColor=none;align=center;verticalAlign=middle;whiteSpace=wrap;rounded=0;" vertex="1" parent="WIyWlLk6GJQsqaUBKTNV-1">
          <mxGeometry x="273.74" y="2395" width="60" height="30" as="geometry" />
        </mxCell>
        <mxCell id="dFNet6i5dZ1s-jXTIMQ5-70" value="Mati" style="text;html=1;strokeColor=none;fillColor=none;align=center;verticalAlign=middle;whiteSpace=wrap;rounded=0;" vertex="1" parent="WIyWlLk6GJQsqaUBKTNV-1">
          <mxGeometry x="220" y="2500" width="60" height="30" as="geometry" />
        </mxCell>
        <mxCell id="dFNet6i5dZ1s-jXTIMQ5-74" style="edgeStyle=orthogonalEdgeStyle;rounded=0;orthogonalLoop=1;jettySize=auto;html=1;" edge="1" parent="WIyWlLk6GJQsqaUBKTNV-1" source="dFNet6i5dZ1s-jXTIMQ5-71" target="dFNet6i5dZ1s-jXTIMQ5-73">
          <mxGeometry relative="1" as="geometry" />
        </mxCell>
        <mxCell id="dFNet6i5dZ1s-jXTIMQ5-76" style="edgeStyle=orthogonalEdgeStyle;rounded=0;orthogonalLoop=1;jettySize=auto;html=1;entryX=0.5;entryY=0;entryDx=0;entryDy=0;" edge="1" parent="WIyWlLk6GJQsqaUBKTNV-1" source="dFNet6i5dZ1s-jXTIMQ5-71" target="dFNet6i5dZ1s-jXTIMQ5-75">
          <mxGeometry relative="1" as="geometry" />
        </mxCell>
        <mxCell id="dFNet6i5dZ1s-jXTIMQ5-71" value="Apakah lampu mati atau menyala?" style="strokeWidth=2;html=1;shape=mxgraph.flowchart.decision;whiteSpace=wrap;" vertex="1" parent="WIyWlLk6GJQsqaUBKTNV-1">
          <mxGeometry x="171.25" y="2390" width="100" height="100" as="geometry" />
        </mxCell>
        <mxCell id="dFNet6i5dZ1s-jXTIMQ5-72" style="edgeStyle=orthogonalEdgeStyle;rounded=0;orthogonalLoop=1;jettySize=auto;html=1;entryX=0.5;entryY=0;entryDx=0;entryDy=0;entryPerimeter=0;" edge="1" parent="WIyWlLk6GJQsqaUBKTNV-1" source="dFNet6i5dZ1s-jXTIMQ5-54" target="dFNet6i5dZ1s-jXTIMQ5-71">
          <mxGeometry relative="1" as="geometry" />
        </mxCell>
        <mxCell id="dFNet6i5dZ1s-jXTIMQ5-73" value="Lampu menyala" style="shape=parallelogram;html=1;strokeWidth=2;perimeter=parallelogramPerimeter;whiteSpace=wrap;rounded=1;arcSize=12;size=0.23;" vertex="1" parent="WIyWlLk6GJQsqaUBKTNV-1">
          <mxGeometry x="364" y="2405" width="132.5" height="70" as="geometry" />
        </mxCell>
        <mxCell id="dFNet6i5dZ1s-jXTIMQ5-75" value="Lampu mati" style="shape=parallelogram;html=1;strokeWidth=2;perimeter=parallelogramPerimeter;whiteSpace=wrap;rounded=1;arcSize=12;size=0.23;" vertex="1" parent="WIyWlLk6GJQsqaUBKTNV-1">
          <mxGeometry x="171.25" y="2550" width="100" height="60" as="geometry" />
        </mxCell>
        <mxCell id="dFNet6i5dZ1s-jXTIMQ5-77" value="Selesai" style="strokeWidth=2;html=1;shape=mxgraph.flowchart.terminator;whiteSpace=wrap;" vertex="1" parent="WIyWlLk6GJQsqaUBKTNV-1">
          <mxGeometry x="171.26" y="2680" width="100" height="60" as="geometry" />
        </mxCell>
        <mxCell id="dFNet6i5dZ1s-jXTIMQ5-78" style="edgeStyle=orthogonalEdgeStyle;rounded=0;orthogonalLoop=1;jettySize=auto;html=1;entryX=0.5;entryY=0;entryDx=0;entryDy=0;entryPerimeter=0;" edge="1" parent="WIyWlLk6GJQsqaUBKTNV-1" source="dFNet6i5dZ1s-jXTIMQ5-75" target="dFNet6i5dZ1s-jXTIMQ5-77">
          <mxGeometry relative="1" as="geometry" />
        </mxCell>
        <mxCell id="dFNet6i5dZ1s-jXTIMQ5-80" style="edgeStyle=orthogonalEdgeStyle;rounded=0;orthogonalLoop=1;jettySize=auto;html=1;entryX=1.003;entryY=0.595;entryDx=0;entryDy=0;entryPerimeter=0;" edge="1" parent="WIyWlLk6GJQsqaUBKTNV-1" source="dFNet6i5dZ1s-jXTIMQ5-73" target="dFNet6i5dZ1s-jXTIMQ5-77">
          <mxGeometry relative="1" as="geometry">
            <Array as="points">
              <mxPoint x="420" y="2716" />
            </Array>
          </mxGeometry>
        </mxCell>
        <mxCell id="dFNet6i5dZ1s-jXTIMQ5-84" style="edgeStyle=orthogonalEdgeStyle;rounded=0;orthogonalLoop=1;jettySize=auto;html=1;entryX=0.5;entryY=0;entryDx=0;entryDy=0;" edge="1" parent="WIyWlLk6GJQsqaUBKTNV-1" source="dFNet6i5dZ1s-jXTIMQ5-81" target="dFNet6i5dZ1s-jXTIMQ5-83">
          <mxGeometry relative="1" as="geometry" />
        </mxCell>
        <mxCell id="dFNet6i5dZ1s-jXTIMQ5-81" value="&lt;font style=&quot;font-size: 11px;&quot;&gt;Bilangan keren yang hanya habis&lt;br&gt;&amp;nbsp;dibagi oleh bilangan 1, dirinya sendiri, &lt;br&gt;dan maksimal dapat dibagi habis &lt;br&gt;dengan 2 bilangan bulat positif.&lt;/font&gt;" style="shape=parallelogram;html=1;strokeWidth=2;perimeter=parallelogramPerimeter;whiteSpace=wrap;rounded=1;arcSize=12;size=0.23;" vertex="1" parent="WIyWlLk6GJQsqaUBKTNV-1">
          <mxGeometry x="103.75" y="-230" width="250" height="100" as="geometry" />
        </mxCell>
        <mxCell id="dFNet6i5dZ1s-jXTIMQ5-83" value="Masukkan bilangan&lt;br style=&quot;border-color: var(--border-color);&quot;&gt;bulat positif (n)" style="rounded=1;whiteSpace=wrap;html=1;absoluteArcSize=1;arcSize=14;strokeWidth=2;" vertex="1" parent="WIyWlLk6GJQsqaUBKTNV-1">
          <mxGeometry x="163.75" y="-60" width="130" height="100" as="geometry" />
        </mxCell>
        <mxCell id="dFNet6i5dZ1s-jXTIMQ5-89" style="edgeStyle=orthogonalEdgeStyle;rounded=0;orthogonalLoop=1;jettySize=auto;html=1;" edge="1" parent="WIyWlLk6GJQsqaUBKTNV-1" source="dFNet6i5dZ1s-jXTIMQ5-85" target="dFNet6i5dZ1s-jXTIMQ5-88">
          <mxGeometry relative="1" as="geometry" />
        </mxCell>
        <mxCell id="dFNet6i5dZ1s-jXTIMQ5-85" value="&lt;font style=&quot;font-size: 11px;&quot;&gt;Terdapat N tombol yang di &lt;br&gt;nomori dari 1 hingga N dan&lt;br&gt;&amp;nbsp;sebuah lampu dalam &lt;br&gt;keadaan mati, dan nilai i adalah&lt;br&gt;&amp;nbsp;1 sampai N&lt;/font&gt;" style="shape=parallelogram;html=1;strokeWidth=2;perimeter=parallelogramPerimeter;whiteSpace=wrap;rounded=1;arcSize=12;size=0.23;" vertex="1" parent="WIyWlLk6GJQsqaUBKTNV-1">
          <mxGeometry x="110" y="1580" width="223.74" height="80" as="geometry" />
        </mxCell>
        <mxCell id="dFNet6i5dZ1s-jXTIMQ5-87" style="edgeStyle=orthogonalEdgeStyle;rounded=0;orthogonalLoop=1;jettySize=auto;html=1;entryX=0.534;entryY=-0.011;entryDx=0;entryDy=0;entryPerimeter=0;" edge="1" parent="WIyWlLk6GJQsqaUBKTNV-1" source="dFNet6i5dZ1s-jXTIMQ5-38" target="dFNet6i5dZ1s-jXTIMQ5-85">
          <mxGeometry relative="1" as="geometry" />
        </mxCell>
        <mxCell id="dFNet6i5dZ1s-jXTIMQ5-90" style="edgeStyle=orthogonalEdgeStyle;rounded=0;orthogonalLoop=1;jettySize=auto;html=1;entryX=0.5;entryY=0;entryDx=0;entryDy=0;" edge="1" parent="WIyWlLk6GJQsqaUBKTNV-1" source="dFNet6i5dZ1s-jXTIMQ5-88" target="dFNet6i5dZ1s-jXTIMQ5-48">
          <mxGeometry relative="1" as="geometry" />
        </mxCell>
        <mxCell id="dFNet6i5dZ1s-jXTIMQ5-88" value="Masukkan bilangan&lt;br style=&quot;border-color: var(--border-color);&quot;&gt;&amp;nbsp;bulat positif N" style="rounded=1;whiteSpace=wrap;html=1;absoluteArcSize=1;arcSize=14;strokeWidth=2;" vertex="1" parent="WIyWlLk6GJQsqaUBKTNV-1">
          <mxGeometry x="171.26" y="1730" width="100" height="100" as="geometry" />
        </mxCell>
        <mxCell id="dFNet6i5dZ1s-jXTIMQ5-91" value="&lt;h1&gt;Problem 1&lt;/h1&gt;&lt;div&gt;&lt;br&gt;&lt;/div&gt;&lt;div&gt;1. Mulai&lt;/div&gt;&lt;div&gt;&lt;br&gt;&lt;/div&gt;2. Bilangan keren yang hanya habis&lt;br style=&quot;border-color: var(--border-color); font-size: 11px; text-align: center;&quot;&gt;&lt;span style=&quot;font-size: 11px; text-align: center;&quot;&gt;&amp;nbsp;dibagi oleh bilangan 1, dirinya sendiri,&lt;/span&gt;&lt;br style=&quot;border-color: var(--border-color); font-size: 11px; text-align: center;&quot;&gt;&lt;span style=&quot;font-size: 11px; text-align: center;&quot;&gt;dan maksimal dapat dibagi habis&lt;/span&gt;&lt;br style=&quot;border-color: var(--border-color); font-size: 11px; text-align: center;&quot;&gt;&lt;span style=&quot;font-size: 11px; text-align: center;&quot;&gt;dengan 2 bilangan bulat positif.&lt;br&gt;&lt;br&gt;3. Masukkan bilangan bulat positif (n)&lt;br&gt;&lt;br&gt;4. Cek apakah n sama dengan 1 atau 2&lt;br&gt;&lt;span style=&quot;white-space: pre;&quot;&gt;&#x9;&lt;/span&gt;- Jika ya, n bukan bilangan keren&lt;br&gt;&lt;span style=&quot;white-space: pre;&quot;&gt;&#x9;&lt;/span&gt;- Jika tidak, lanjutkan ke langkah 4&lt;br&gt;&lt;br&gt;5. Inisialisasi sebuah variabel (i) dengan nilai 2&lt;br&gt;&lt;br&gt;6. Bagi nilai n dengan i&lt;br&gt;&lt;br&gt;7. Cek apakah nilai n habis dibagi oleh i&lt;br&gt;&lt;span style=&quot;white-space: pre;&quot;&gt;&#x9;&lt;/span&gt;- Jika ya, n bukan merupakan bilangan keren&lt;br&gt;&lt;span style=&quot;white-space: pre;&quot;&gt;&#x9;&lt;/span&gt;- jika tidak, n merupakan bilangan keren&lt;br&gt;&lt;br&gt;8. Tentukan keluaran ya/tidak&lt;br&gt;&lt;br&gt;9. Selesai&lt;br&gt;&lt;br&gt;&lt;/span&gt;" style="text;html=1;strokeColor=none;fillColor=none;spacing=5;spacingTop=-20;whiteSpace=wrap;overflow=hidden;rounded=0;" vertex="1" parent="WIyWlLk6GJQsqaUBKTNV-1">
          <mxGeometry x="20" y="-780" width="600" height="410" as="geometry" />
        </mxCell>
        <mxCell id="dFNet6i5dZ1s-jXTIMQ5-92" value="&lt;h1&gt;Problem 2&lt;/h1&gt;&lt;div&gt;1. Mulai&amp;nbsp;&lt;/div&gt;&lt;div&gt;&lt;br&gt;&lt;/div&gt;2. Terdapat N tombol yang di&lt;br style=&quot;border-color: var(--border-color); font-size: 11px; text-align: center;&quot;&gt;&lt;span style=&quot;font-size: 11px; text-align: center;&quot;&gt;nomori dari 1 hingga N dan&lt;/span&gt;&lt;br style=&quot;border-color: var(--border-color); font-size: 11px; text-align: center;&quot;&gt;&lt;span style=&quot;font-size: 11px; text-align: center;&quot;&gt;&amp;nbsp;sebuah lampu dalam&lt;/span&gt;&lt;br style=&quot;border-color: var(--border-color); font-size: 11px; text-align: center;&quot;&gt;&lt;span style=&quot;font-size: 11px; text-align: center;&quot;&gt;keadaan mati, dan nilai i adalah&lt;/span&gt;&lt;br style=&quot;border-color: var(--border-color); font-size: 11px; text-align: center;&quot;&gt;&lt;span style=&quot;font-size: 11px; text-align: center;&quot;&gt;&amp;nbsp;1 sampai N&lt;br&gt;&lt;br&gt;3. Masukkan bilangan bulat positif&lt;br&gt;&lt;br&gt;4. Bagi nilai N dengan i&lt;br&gt;&lt;br&gt;5. Cek apakah N habis dibagi i&lt;br&gt;&lt;span style=&quot;white-space: pre;&quot;&gt;&#x9;&lt;/span&gt;- Jika tidak, keadaan lampu tetap&lt;br&gt;&lt;span style=&quot;white-space: pre;&quot;&gt;&#x9;&lt;/span&gt;- Jika ya, ubah keadaan lampu menjadi sebaliknya&lt;br&gt;&lt;br&gt;7. Apakah lampu mati atau menyala?&lt;br&gt;&lt;span style=&quot;white-space: pre;&quot;&gt;&#x9;&lt;/span&gt;- Jika menyala, output &quot;Lampu menyala&quot;&lt;br&gt;&lt;span style=&quot;white-space: pre;&quot;&gt;&#x9;&lt;/span&gt;- Jika mati, output &quot;Lampu mati&quot;&lt;br&gt;&lt;br&gt;8. Selesai&lt;br&gt;&lt;/span&gt;" style="text;html=1;strokeColor=none;fillColor=none;spacing=5;spacingTop=-20;whiteSpace=wrap;overflow=hidden;rounded=0;" vertex="1" parent="WIyWlLk6GJQsqaUBKTNV-1">
          <mxGeometry x="390" y="1220" width="420" height="360" as="geometry" />
        </mxCell>
      </root>
    </mxGraphModel>
  </diagram>
</mxfile>
